<?xml version="1.0" standalone="no"?><!DOCTYPE svg PUBLIC "-//W3C//DTD SVG 1.1//EN" "http://www.w3.org/Graphics/SVG/1.1/DTD/svg11.dtd"><svg t="1613878375277" class="icon" viewBox="0 0 1024 1024" version="1.1" xmlns="http://www.w3.org/2000/svg" p-id="2165" xmlns:xlink="http://www.w3.org/1999/xlink" width="200" height="200"><defs><style type="text/css"></style></defs><path d="M540.251 112a7.977 7.977 0 0 0-5.64 2.337L66.336 582.61a7.977 7.977 0 0 0 0 11.282l363.772 363.77a7.948 7.948 0 0 0 5.64 2.337 7.95 7.95 0 0 0 5.64-2.337L909.663 489.39a7.975 7.975 0 0 0 2.301-6.392l-29.589-312.616c-1.442-15.244-13.512-27.314-28.756-28.756l-312.616-29.59a7.901 7.901 0 0 0-0.752-0.035m23.965 74.554L813.82 210.18l23.626 249.603L435.748 861.48 162.52 588.25l401.696-401.697" fill="#000000" p-id="2166"></path><path d="M656 280c-48.523 0-88 39.477-88 88s39.477 88 88 88 88-39.477 88-88-39.477-88-88-88m0 56c17.674 0 32 14.327 32 32 0 17.673-14.326 32-32 32s-32-14.327-32-32c0-17.673 14.326-32 32-32" fill="#000000" p-id="2167"></path></svg>